HIERARCHY
ROOT Hips
{
	OFFSET 0.00000 0.00000 0.00000
	CHANNELS 6 Xposition Yposition Zposition Zrotation Yrotation Xrotation 
	JOINT LHipJoint
	{
		OFFSET 0 0 0
		CHANNELS 3 Zrotation Yrotation Xrotation
		JOINT LeftUpLeg
		{
			OFFSET 1.52977 -1.71332 0.88991
			CHANNELS 3 Zrotation Yrotation Xrotation
			JOINT LeftLeg
			{
				OFFSET 2.23949 -6.15296 0.00000
				CHANNELS 3 Zrotation Yrotation Xrotation
				JOINT LeftFoot
				{
					OFFSET 2.68396 -7.37412 0.00000
					CHANNELS 3 Zrotation Yrotation Xrotation
					JOINT LeftToeBase
					{
						OFFSET 0.20538 -0.56428 2.52710
						CHANNELS 3 Zrotation Yrotation Xrotation
						End Site
						{
							OFFSET 0.00000 -0.00000 1.29919
						}
					}
				}
			}
		}
	}
	JOINT RHipJoint
	{
		OFFSET 0 0 0
		CHANNELS 3 Zrotation Yrotation Xrotation
		JOINT RightUpLeg
		{
			OFFSET -1.45689 -1.71333 0.88991
			CHANNELS 3 Zrotation Yrotation Xrotation
			JOINT RightLeg
			{
				OFFSET -2.36700 -6.50329 0.00000
				CHANNELS 3 Zrotation Yrotation Xrotation
				JOINT RightFoot
				{
					OFFSET -2.69814 -7.41308 0.00000
					CHANNELS 3 Zrotation Yrotation Xrotation
					JOINT RightToeBase
					{
						OFFSET -0.18734 -0.51471 2.37479
						CHANNELS 3 Zrotation Yrotation Xrotation
						End Site
						{
							OFFSET -0.00000 -0.00000 1.22113
						}
					}
				}
			}
		}
	}
	JOINT LowerBack
	{
		OFFSET 0 0 0
		CHANNELS 3 Zrotation Yrotation Xrotation
		JOINT Spine
		{
			OFFSET 0.04294 2.14638 -0.31163
			CHANNELS 3 Zrotation Yrotation Xrotation
			JOINT Spine1
			{
				OFFSET -0.00400 2.17216 0.01486
				CHANNELS 3 Zrotation Yrotation Xrotation
				JOINT Neck
				{
					OFFSET 0 0 0
					CHANNELS 3 Zrotation Yrotation Xrotation
					JOINT Neck1
					{
						OFFSET 0.03869 1.76598 0.14916
						CHANNELS 3 Zrotation Yrotation Xrotation
						JOINT Head
						{
							OFFSET -0.00760 1.75513 -0.18948
							CHANNELS 3 Zrotation Yrotation Xrotation
							End Site
							{
								OFFSET -0.00601 1.82444 -0.08310
							}
						}
					}
				}
				JOINT LeftShoulder
				{
					OFFSET 0 0 0
					CHANNELS 3 Zrotation Yrotation Xrotation
					JOINT LeftArm
					{
						OFFSET 3.73696 0.92058 0.01733
						CHANNELS 3 Zrotation Yrotation Xrotation
						JOINT LeftForeArm
						{
							OFFSET 5.22771 -0.00000 0.00000
							CHANNELS 3 Zrotation Yrotation Xrotation
							JOINT LeftHand
							{
								OFFSET 3.45251 -0.00000 0.00000
								CHANNELS 3 Zrotation Yrotation Xrotation
								JOINT LeftFingerBase
								{
									OFFSET 0 0 0
									CHANNELS 3 Zrotation Yrotation Xrotation
									JOINT LeftHandIndex1
									{
										OFFSET 0.55212 -0.00000 0.00000
										CHANNELS 3 Zrotation Yrotation Xrotation
										End Site
										{
											OFFSET 0.44513 -0.00000 0.00000
										}
									}
								}
								JOINT LThumb
								{
									OFFSET 0 0 0
									CHANNELS 3 Zrotation Yrotation Xrotation
									End Site
									{
										OFFSET 0.45193 -0.00000 0.45193
									}
								}
							}
						}
					}
				}
				JOINT RightShoulder
				{
					OFFSET 0 0 0
					CHANNELS 3 Zrotation Yrotation Xrotation
					JOINT RightArm
					{
						OFFSET -3.63819 0.83094 -0.13694
						CHANNELS 3 Zrotation Yrotation Xrotation
						JOINT RightForeArm
						{
							OFFSET -5.23980 -0.00000 -0.00000
							CHANNELS 3 Zrotation Yrotation Xrotation
							JOINT RightHand
							{
								OFFSET -3.48042 -0.00000 -0.00000
								CHANNELS 3 Zrotation Yrotation Xrotation
								JOINT RightFingerBase
								{
									OFFSET 0 0 0
									CHANNELS 3 Zrotation Yrotation Xrotation
									JOINT RightHandIndex1
									{
										OFFSET -0.61871 -0.00000 0.00000
										CHANNELS 3 Zrotation Yrotation Xrotation
										End Site
										{
											OFFSET -0.49882 -0.00000 0.00000
										}
									}
								}
								JOINT RThumb
								{
									OFFSET 0 0 0
									CHANNELS 3 Zrotation Yrotation Xrotation
									End Site
									{
										OFFSET -0.50644 -0.00000 0.50644
									}
								}
							}
						}
					}
				}
			}
		}
	}
}
MOTION
Frames: 11
Frame Time: .0083333
-37.6615 18.0089 -5.6461 0 0 0 0 0 0 -21 0 0 0 0 0 0 0 0 0 0 0 0 0 0 21 0 0 0 0 0 0 0 0 0 0 0 0 0 0 0 0 0 0 0 0 0 0 -16 0 0 21 0 0 11 0 0 0 -8 0 0 0 0 0 0 0 0 0 0 0 0 0 0 0 0 0 0 0 0 8 0 0 0 0 0 0 0 0 0 0 0 0 0 0 0 0 0
-37.6615 18.0089 -5.6461 -110.4070 -87.4206 107.7170 0.0000 0.0000 0.0000 -12.8581 7.6464 2.4922 0.6250 5.0590 14.0769 0.1610 5.7839 7.6639 0.7224 -5.4312 -15.1426 0.0000 0.0000 0.0000 20.0890 -0.6411 -4.7420 -2.4615 -9.7675 28.2270 -0.0513 -1.0401 -4.7936 -0.0875 1.9083 -5.2524 2.7234 -0.9189 -0.2878 0.2229 -1.2710 1.4841 -1.3182 -0.6042 1.6291 0.5521 -0.3705 -6.8172 2.7733 -0.8129 7.0583 0.7719 -0.2825 3.5022 -0.0000 -0.0000 0.0000 -87.7795 2.8175 21.8849 14.8425 -23.9262 -3.1618 -0.0000 0.0000 -18.2953 18.6377 10.7297 3.5930 -7.1250 0.0000 -0.0000 -7.4941 41.1731 0.7118 -0.0000 -0.0000 0.0000 90.4979 -2.1678 20.4910 -14.4771 23.4126 -3.0151 0.0000 0.0000 4.6328 -17.8334 -10.2798 3.2858 7.1250 -0.0000 -0.0000 8.1176 -40.6343 0.8804
-37.6616 17.9947 -5.6436 -107.5310 -87.3266 104.7520 0.0000 0.0000 0.0000 -12.5268 7.6950 2.4981 0.6396 5.1166 14.2414 0.1675 5.6603 7.7454 0.5518 -4.7584 -13.2208 0.0000 0.0000 0.0000 20.0777 -0.9257 -4.5693 -2.4438 -9.7350 28.1229 -0.0421 -0.8264 -4.2730 -0.0473 1.4037 -3.8603 2.8802 -0.9747 -0.2224 0.2248 -1.3453 1.4864 -1.4038 -0.6399 1.5883 0.5453 -0.3876 -6.7738 2.8054 -0.8432 7.2050 0.7829 -0.2958 3.5458 -0.0000 0.0000 0.0000 -87.7602 2.7215 21.6064 14.6683 -23.6820 -3.0915 -0.0000 0.0000 -18.1785 18.6987 10.9299 3.6719 -7.1250 0.0000 -0.0000 -7.4761 41.3870 0.6704 -0.0000 0.0000 0.0000 90.5532 -2.1828 20.2509 -14.4137 23.3230 -2.9900 0.0000 0.0000 4.8209 -17.8473 -6.1349 1.9708 7.1250 -0.0000 -0.0000 7.4720 -36.3351 1.6030
-37.6656 17.9755 -5.6431 -106.1270 -87.2213 103.2810 0.0000 0.0000 0.0000 -12.2258 7.7627 2.5333 0.6428 5.1293 14.2777 0.1759 5.6220 7.8875 0.4390 -4.2514 -11.7849 0.0000 0.0000 0.0000 20.0871 -0.9901 -4.5911 -2.4320 -9.7132 28.0530 -0.0326 -0.8705 -3.8471 -0.0180 0.8662 -2.3808 2.9906 -0.9943 -0.2365 0.2436 -1.3748 1.5242 -1.4475 -0.6526 1.6319 0.3766 -0.5336 -6.9702 3.0532 -1.0558 7.4492 0.8854 -0.3920 3.6768 0.0000 0.0000 0.0000 -87.7787 2.5465 21.2980 14.4543 -23.3804 -3.0060 -0.0000 0.0000 -17.9527 18.7381 10.7256 3.6124 -7.1250 0.0000 -0.0000 -7.4052 41.1779 0.7024 0.0000 0.0000 0.0000 90.5865 -2.1592 20.0049 -14.3746 23.2677 -2.9745 0.0000 0.0000 4.9603 -17.7768 -6.2399 1.9959 7.1250 -0.0000 -0.0000 7.5445 -36.4402 1.5993
-37.6691 17.9735 -5.6432 -104.1790 -87.2330 101.3500 0.0000 0.0000 0.0000 -12.1023 7.7704 2.4808 0.6445 5.1359 14.2967 0.1903 5.6472 8.1505 0.3688 -3.9006 -10.7971 0.0000 0.0000 0.0000 20.0298 -0.9425 -4.4328 -2.4251 -9.7004 28.0118 -0.0329 -0.5721 -3.6876 -0.0048 0.4488 -1.2332 2.9806 -1.0235 -0.3312 0.2408 -1.4172 1.5353 -1.4474 -0.6728 1.6946 0.4600 -0.5470 -7.0572 2.9280 -1.0792 7.6430 0.8289 -0.4039 3.7605 -0.0000 -0.0000 0.0000 -87.7926 2.4065 21.0537 14.2693 -23.1183 -2.9330 -0.0000 0.0000 -17.8820 18.5284 11.0385 3.6716 -7.1250 0.0000 -0.0000 -7.6454 41.4840 0.6674 -0.0000 -0.0000 0.0000 90.6084 -2.1416 19.7809 -14.3018 23.1646 -2.9458 0.0000 0.0000 5.0063 -17.8175 -6.4684 2.0736 7.1250 -0.0000 -0.0000 7.5406 -36.6800 1.5539
-37.6717 17.9683 -5.6442 -102.6030 -87.2046 99.7722 0.0000 0.0000 0.0000 -11.9289 7.7777 2.4758 0.6425 5.1278 14.2736 0.2184 5.4125 8.5793 0.4395 -4.2538 -11.7917 0.0000 0.0000 0.0000 20.0121 -0.8849 -4.3411 -2.4185 -9.6881 27.9726 -0.0298 -0.4739 -3.4712 -0.0000 0.0343 -0.0941 2.9926 -1.0515 -0.3831 0.2465 -1.4568 1.5402 -1.4501 -0.6919 1.7268 0.4495 -0.5876 -7.1556 2.9353 -1.1424 7.8480 0.8309 -0.4327 3.8536 0.0000 -0.0000 0.0000 -87.8026 2.2810 20.7840 14.0846 -22.8556 -2.8609 -0.0000 0.0000 -17.7618 18.4372 11.0993 3.6721 -7.1250 0.0000 -0.0000 -7.7368 41.5385 0.6650 0.0000 -0.0000 0.0000 90.6363 -2.1503 19.5677 -14.2440 23.0824 -2.9231 0.0000 0.0000 5.0724 -17.8277 -6.1396 1.9699 7.1250 -0.0000 -0.0000 7.4889 -36.3388 1.6060
-37.6741 17.9669 -5.6467 -101.3680 -87.1967 98.5530 0.0000 0.0000 0.0000 -11.8008 7.7701 2.5120 0.6300 5.0786 14.1329 0.2448 5.3016 8.9976 0.5073 -4.5659 -12.6743 0.0000 0.0000 0.0000 20.0006 -0.7186 -4.2836 -2.4230 -9.6966 27.9997 -0.0281 -0.4098 -3.3470 -0.0026 -0.3275 0.8999 2.9584 -1.0741 -0.4418 0.2518 -1.4883 1.5347 -1.4273 -0.7077 1.7536 0.4852 -0.6148 -7.2148 2.8779 -1.1845 8.0153 0.8039 -0.4530 3.9243 0.0000 -0.0000 0.0000 -87.8123 2.1710 20.5274 13.9072 -22.6019 -2.7923 -0.0000 0.0000 -17.6502 18.3399 11.1239 3.6594 -7.1250 0.0000 -0.0000 -7.8270 41.5549 0.6697 0.0000 -0.0000 0.0000 90.6619 -2.1774 19.3712 -14.1875 23.0021 -2.9010 0.0000 0.0000 5.1057 -17.8512 -6.1249 1.9680 7.1250 -0.0000 -0.0000 7.4674 -36.3249 1.6039
-37.6760 17.9688 -5.6503 -100.4640 -87.2129 97.6781 0.0000 0.0000 0.0000 -11.7256 7.7555 2.5044 0.6167 5.0259 13.9823 0.2740 5.2873 9.4647 0.5613 -4.7987 -13.3352 0.0000 0.0000 0.0000 19.9864 -0.4839 -4.2270 -2.4272 -9.7042 28.0242 -0.0271 -0.4253 -3.2960 -0.0095 -0.6279 1.7256 2.8822 -1.0920 -0.4963 0.2542 -1.5124 1.5181 -1.3836 -0.7207 1.7679 0.5568 -0.6288 -7.2232 2.7647 -1.2049 8.1391 0.7528 -0.4648 3.9684 -0.0000 -0.0000 0.0000 -87.8198 2.0805 20.2884 13.7393 -22.3608 -2.7281 -0.0000 0.0000 -17.5463 18.2496 11.1391 3.6450 -7.1250 0.0000 -0.0000 -7.9093 41.5620 0.6754 -0.0000 -0.0000 0.0000 90.6855 -2.2258 19.1911 -14.1321 22.9232 -2.8794 0.0000 0.0000 5.1181 -17.8870 -6.1074 1.9666 7.1250 -0.0000 -0.0000 7.4353 -36.3086 1.5999
-37.6778 17.9729 -5.6543 -99.9737 -87.2512 97.2197 0.0000 0.0000 0.0000 -11.7003 7.7342 2.4887 0.6006 4.9611 13.7978 0.3058 5.3640 9.9656 0.6021 -4.9670 -13.8145 0.0000 0.0000 0.0000 19.9610 -0.2025 -4.1925 -2.4338 -9.7166 28.0638 -0.0261 -0.5247 -3.2917 -0.0190 -0.8901 2.4463 2.7724 -1.1038 -0.5420 0.2532 -1.5271 1.4925 -1.3242 -0.7296 1.7692 0.6051 -0.6270 -7.2319 2.6646 -1.2028 8.2671 0.7114 -0.4657 4.0141 -0.0000 0.0000 0.0000 -87.8282 2.0136 20.0676 13.5830 -22.1354 -2.6690 -0.0000 0.0000 -17.4433 18.1751 11.1537 3.6338 -7.1250 0.0000 -0.0000 -7.9776 41.5703 0.6797 -0.0000 0.0000 0.0000 90.7047 -2.2985 19.0287 -14.0795 22.8482 -2.8589 0.0000 0.0000 5.1187 -17.9240 -6.0967 1.9675 7.1250 -0.0000 -0.0000 7.4031 -36.2996 1.5945
-37.6802 17.9782 -5.6580 -99.8856 -87.2990 97.1574 0.0000 0.0000 0.0000 -11.7077 7.7163 2.4622 0.5844 4.8949 13.6089 0.3412 5.5014 10.5061 0.6280 -5.0710 -14.1112 0.0000 0.0000 0.0000 19.9286 0.0927 -4.1651 -2.4411 -9.7300 28.1069 -0.0248 -0.6887 -3.3130 -0.0316 -1.1473 3.1542 2.6516 -1.1083 -0.5824 0.2507 -1.5316 1.4670 -1.2597 -0.7335 1.7684 0.6783 -0.6278 -7.2059 2.5277 -1.2013 8.3559 0.6530 -0.4683 4.0384 -0.0000 0.0000 0.0000 -87.8348 1.9630 19.8851 13.4403 -21.9290 -2.6154 -0.0000 0.0000 -17.3524 18.1375 11.1457 3.6232 -7.1250 0.0000 -0.0000 -8.0092 41.5583 0.6848 -0.0000 0.0000 0.0000 90.7164 -2.3824 18.8816 -14.0252 22.7707 -2.8378 0.0000 0.0000 5.1225 -17.9585 -6.0803 1.9663 7.1250 -0.0000 -0.0000 7.3721 -36.2843 1.5905
-37.6832 17.9841 -5.6603 -99.9360 -87.3456 97.2166 0.0000 0.0000 0.0000 -11.7317 7.6974 2.4370 0.5707 4.8380 13.4471 0.3789 5.6583 11.0553 0.6427 -5.1287 -14.2760 0.0000 0.0000 0.0000 19.8860 0.3413 -4.1346 -2.4465 -9.7399 28.1385 -0.0223 -0.9121 -3.3120 -0.0442 -1.3564 3.7300 2.5495 -1.1106 -0.6131 0.2468 -1.5332 1.4446 -1.2071 -0.7358 1.7649 0.7262 -0.6220 -7.1863 2.4142 -1.1904 8.4479 0.6075 -0.4661 4.0656 0.0000 -0.0000 0.0000 -87.8445 1.9322 19.7266 13.3119 -21.7424 -2.5677 -0.0000 0.0000 -17.2648 18.1019 11.2099 3.6361 -7.1250 0.0000 -0.0000 -8.0527 41.6216 0.6760 0.0000 -0.0000 0.0000 90.7171 -2.4758 18.7597 -13.9654 22.6852 -2.8147 0.0000 0.0000 5.1269 -17.9980 -6.0504 1.9612 7.1250 -0.0000 -0.0000 7.3355 -36.2554 1.5877
